<?xml version="1.0" standalone="no"?>
<!DOCTYPE svg PUBLIC "-//W3C//DTD SVG 20010904//EN"
 "http://www.w3.org/TR/2001/REC-SVG-20010904/DTD/svg10.dtd">
<svg version="1.0" xmlns="http://www.w3.org/2000/svg"
 width="1024.000000pt" height="1024.000000pt" viewBox="0 0 1024.000000 1024.000000"
 preserveAspectRatio="xMidYMid meet">

<g transform="translate(0.000000,1024.000000) scale(0.100000,-0.100000)"
fill="#000000" stroke="none">
<path d="M7169 9145 c-188 -37 -391 -154 -624 -357 -118 -104 -215 -201 -215
-217 0 -3 42 -27 93 -53 204 -105 441 -250 588 -362 165 -125 285 -244 500
-489 l25 -30 50 69 c273 375 499 756 533 896 15 65 14 147 -4 197 -51 146
-305 300 -573 346 -102 18 -283 18 -373 0z"/>
<path d="M2615 9125 c-239 -45 -453 -190 -495 -335 -15 -51 -12 -129 6 -191
42 -142 213 -425 487 -808 53 -74 98 -139 101 -145 2 -6 34 23 71 64 307 341
590 561 1030 800 33 18 63 36 68 39 4 4 -40 49 -98 100 -322 286 -566 428
-815 475 -98 19 -258 19 -355 1z"/>
<path d="M6254 8300 c9 -14 19 -32 22 -41 6 -16 44 -15 44 1 0 10 -22 28 -40
32 -8 2 -21 10 -29 18 -7 8 -6 4 3 -10z m37 -27 c13 -16 12 -17 -3 -4 -10 7
-18 15 -18 17 0 8 8 3 21 -13z"/>
<path d="M6324 8241 c4 -5 -3 -7 -14 -4 -15 4 -22 -2 -30 -21 -6 -17 -14 -24
-22 -20 -7 4 -8 3 -4 -5 4 -6 11 -9 16 -6 12 7 18 -17 10 -40 -9 -24 -2 -47
11 -39 5 3 7 9 5 13 -3 4 2 8 10 8 10 0 11 -4 5 -10 -7 -7 -7 -16 2 -26 10
-14 10 -14 -5 -3 -12 10 -18 10 -24 1 -7 -13 -8 -165 0 -177 3 -5 1 -13 -3
-20 -5 -8 -25 5 -61 39 -47 44 -56 49 -66 35 -6 -9 -14 -13 -18 -9 -4 4 -4 -1
0 -11 5 -14 9 -15 15 -4 6 9 9 9 9 1 0 -16 -17 -26 -25 -13 -4 6 -11 8 -16 4
-6 -3 -5 -12 3 -22 7 -9 8 -13 2 -9 -7 4 -14 -2 -17 -13 -4 -14 -10 -18 -23
-13 -13 5 -15 3 -9 -7 5 -9 4 -11 -4 -6 -9 6 -9 11 -1 21 9 10 7 13 -7 10 -10
-1 -17 -8 -15 -15 1 -7 -2 -18 -9 -26 -6 -7 -7 -19 -3 -25 5 -8 3 -9 -6 -4
-10 6 -12 4 -7 -9 4 -9 3 -14 -2 -11 -5 3 -12 1 -16 -5 -4 -6 -11 -8 -16 -5
-5 4 -9 2 -9 -3 0 -17 13 -22 29 -9 14 11 14 10 2 -5 -7 -10 -17 -15 -22 -12
-5 3 -9 -2 -9 -11 0 -9 4 -13 10 -10 6 4 7 -1 3 -11 -5 -14 -7 -14 -14 -2 -14
25 6 113 20 89 4 -5 14 3 22 18 12 21 13 28 3 28 -7 0 -13 -3 -12 -6 2 -20 -3
-31 -12 -26 -6 4 -8 10 -5 15 3 5 0 12 -6 16 -7 4 -9 3 -5 -4 3 -6 2 -13 -3
-17 -6 -3 -7 -13 -4 -22 4 -10 2 -14 -5 -9 -7 4 -10 -9 -8 -43 1 -29 -2 -47
-8 -44 -5 4 -6 1 0 -8 12 -20 14 -40 3 -33 -5 3 -6 10 -3 16 4 7 2 8 -4 4 -7
-4 -9 -14 -4 -24 7 -16 8 -40 2 -52 -1 -3 -3 -17 -4 -32 -1 -15 -5 -29 -9 -32
-4 -4 -5 -3 -2 0 2 4 0 16 -6 27 -8 14 -8 18 0 13 7 -5 9 -1 5 8 -4 10 -1 16
7 16 9 0 10 3 4 8 -15 11 -18 35 -3 26 7 -4 9 -3 5 1 -4 5 -14 10 -23 11 -11
2 -12 -1 -4 -11 7 -8 7 -15 1 -19 -5 -3 -11 0 -14 6 -3 7 -4 3 -4 -9 1 -12 5
-19 9 -17 4 3 8 0 8 -6 0 -6 -6 -13 -14 -16 -9 -3 -12 -13 -8 -27 6 -21 6 -21
13 3 6 23 7 23 8 3 1 -12 -8 -28 -19 -36 -11 -8 -17 -17 -12 -22 4 -5 1 -4 -7
0 -11 6 -13 4 -8 -9 4 -9 3 -15 -2 -12 -5 3 -14 -1 -20 -8 -9 -11 -9 -16 -1
-21 8 -5 4 -15 -12 -32 -13 -13 -21 -27 -20 -30 2 -2 2 -6 0 -9 -3 -2 -4 12
-3 31 1 34 15 64 15 31 0 -9 5 -14 10 -11 6 4 7 12 3 18 -12 20 -12 38 0 30 7
-4 6 1 -2 10 -16 20 -22 22 -18 5 1 -7 -4 -12 -12 -10 -12 3 -12 0 -2 -12 6
-8 8 -17 4 -19 -5 -3 -10 -20 -11 -38 -2 -18 -8 -36 -14 -40 -7 -4 -13 -21
-14 -38 -2 -20 1 -29 8 -25 7 4 8 2 4 -5 -10 -16 -29 -2 -22 16 5 11 2 14 -11
9 -15 -5 -15 -4 1 9 13 10 15 15 6 15 -9 0 -8 4 5 14 22 16 28 43 10 43 -7 0
-12 -8 -10 -18 2 -10 -3 -20 -12 -23 -11 -5 -14 -2 -9 11 4 10 3 14 -1 9 -4
-4 -8 -20 -8 -34 -1 -18 -5 -26 -14 -24 -12 3 -12 0 -2 -12 7 -8 8 -17 2 -20
-10 -7 -9 -31 2 -42 3 -4 4 3 2 15 -2 12 0 19 5 16 18 -11 3 -40 -19 -37 -15
2 -21 -2 -21 -15 0 -15 2 -16 10 -3 7 11 10 11 10 2 0 -7 5 -10 12 -6 6 4 8 3
5 -4 -7 -11 -25 -11 -42 0 -6 4 -11 -2 -12 -12 -1 -13 3 -17 15 -14 14 5 14 4
-1 -6 -15 -10 -16 -14 -5 -28 11 -13 11 -14 -1 -7 -11 6 -13 4 -8 -8 4 -11 1
-15 -14 -12 -17 4 -25 -10 -20 -37 0 -5 -4 -7 -11 -5 -8 1 -12 -11 -12 -34 0
-29 -3 -36 -14 -31 -10 3 -13 1 -8 -6 5 -8 0 -12 -12 -12 -20 0 -38 -46 -21
-52 5 -2 10 -14 12 -28 4 -26 6 -27 57 -29 39 -1 80 -41 80 -76 0 -48 -48
-115 -99 -137 -59 -25 -100 -64 -94 -88 6 -22 -29 -44 -57 -35 -10 3 -21 1
-25 -5 -3 -5 -33 -10 -66 -10 -66 0 -99 21 -99 64 0 27 -42 66 -71 66 -10 0
-21 5 -24 11 -5 7 -17 2 -34 -13 -14 -13 -23 -19 -19 -14 4 5 3 15 -3 22 -8
10 -6 12 9 9 26 -5 45 17 40 47 -2 18 -8 22 -27 20 -13 -2 -27 1 -30 6 -3 5
-17 12 -31 16 -19 6 -21 5 -10 -3 14 -10 7 -16 -14 -12 -5 1 -5 -4 0 -11 6 -7
9 -23 8 -35 0 -12 2 -20 7 -17 4 2 6 12 3 22 -5 14 -4 14 4 2 7 -9 7 -18 1
-26 -5 -7 -9 -16 -8 -20 5 -27 -1 -35 -15 -22 -10 9 -11 15 -3 20 7 4 2 6 -10
5 -19 -1 -20 -3 -8 -17 7 -8 14 -19 13 -25 0 -16 -19 -35 -29 -30 -4 3 -15 -7
-23 -22 -8 -15 -15 -21 -16 -13 0 13 -1 13 -10 0 -7 -11 -10 -11 -10 -2 0 7
-5 10 -10 7 -6 -4 -7 -12 -4 -18 4 -7 3 -8 -1 -4 -12 10 -15 38 -4 31 5 -3 9
1 9 8 0 11 2 10 9 0 6 -11 10 -10 16 5 5 10 9 21 9 25 2 16 16 20 16 4 0 -9 5
-14 10 -11 6 4 7 11 4 17 -5 7 -2 8 5 3 10 -6 11 -3 1 16 -18 34 -24 38 -15 9
4 -14 4 -22 -1 -17 -4 4 -18 -3 -31 -15 -24 -22 -33 -13 -10 12 10 12 9 12 -4
2 -9 -6 -19 -8 -24 -4 -4 4 -2 -3 4 -15 8 -15 8 -23 1 -23 -5 0 -10 5 -10 12
0 26 -12 -2 -15 -36 -2 -25 0 -34 8 -29 8 4 8 1 0 -9 -7 -8 -11 -18 -8 -21 3
-4 2 -4 -2 -1 -8 5 -9 9 -12 35 0 5 -5 8 -10 5 -11 -7 -9 -24 3 -46 5 -8 6
-12 1 -8 -4 4 -14 3 -21 -3 -8 -7 -14 -7 -19 1 -4 6 -3 9 2 8 4 -2 8 2 8 7 0
6 -4 9 -8 7 -5 -1 -6 2 -3 7 4 5 1 11 -6 14 -7 2 -5 3 5 1 10 -1 21 4 24 12 3
8 12 13 19 10 8 -3 14 -1 14 4 0 16 -30 12 -36 -4 -3 -8 -12 -12 -20 -9 -8 3
-24 -3 -34 -12 -21 -19 -29 -8 -9 12 8 8 7 13 -3 18 -7 5 -10 5 -6 0 4 -4 3
-14 -3 -22 -9 -9 -8 -17 0 -27 8 -9 8 -16 2 -20 -10 -7 -34 28 -25 36 2 3 -2
11 -10 17 -12 10 -17 8 -26 -9 -6 -11 -15 -18 -21 -15 -5 4 -7 10 -5 14 3 4
-1 8 -9 8 -9 0 -5 -11 13 -32 26 -31 27 -31 39 -11 9 15 13 17 14 6 1 -8 1
-18 0 -22 0 -4 8 -5 19 -3 12 2 18 0 16 -4 -3 -4 -20 -7 -38 -6 -22 2 -38 -4
-48 -16 -14 -18 -15 -18 -17 8 0 16 2 21 7 13 4 -6 9 -8 12 -4 2 5 -6 20 -19
34 -16 16 -22 19 -17 7 5 -13 2 -16 -10 -11 -9 3 -13 11 -9 18 3 6 3 8 -2 4
-4 -4 -15 -2 -24 5 -14 10 -14 10 -3 -5 8 -10 9 -19 3 -22 -5 -3 -12 0 -14 6
-4 9 -6 10 -6 1 -1 -6 3 -14 9 -18 11 -7 2 -35 -12 -35 -5 0 -7 4 -3 9 3 5 1
12 -5 16 -6 4 -7 11 -4 17 5 7 2 8 -5 3 -9 -5 -10 -10 -2 -18 7 -7 6 -19 -4
-38 -14 -25 -13 -28 10 -43 14 -9 25 -25 25 -35 0 -10 11 -35 25 -55 14 -20
25 -39 25 -41 0 -3 21 -37 47 -77 63 -99 83 -145 83 -195 l0 -43 168 -1 c92 0
230 -1 307 -1 l140 0 5 43 c3 24 9 51 14 59 5 8 161 242 346 520 483 723 580
878 580 924 0 7 -9 16 -20 19 -24 6 -25 20 -4 42 13 12 19 13 30 4 19 -16 21
-12 49 68 31 92 49 215 41 283 -11 92 -57 207 -78 194 -7 -4 -8 -3 -4 4 8 13
-40 82 -56 82 -5 0 -7 -4 -4 -9z m-12 -35 c7 4 8 2 4 -4 -4 -7 -1 -12 6 -13
10 0 10 -2 1 -6 -7 -2 -13 -9 -13 -14 0 -6 5 -7 10 -4 16 10 11 -1 -7 -16 -9
-8 -14 -9 -10 -3 3 6 0 19 -7 29 -7 10 -11 28 -8 39 5 18 7 19 10 3 2 -9 8
-14 14 -11z m-295 -817 c16 -16 5 -39 -17 -39 -23 0 -34 16 -26 35 6 18 28 19
43 4z m-272 -48 c3 -5 2 -12 -3 -15 -5 -3 -9 1 -9 9 0 17 3 19 12 6z m-44
-174 c-10 -9 -11 -8 -5 6 3 10 9 15 12 12 3 -3 0 -11 -7 -18z m196 -73 c9 -25
-13 -40 -26 -16 -10 19 -6 32 11 32 5 0 11 -7 15 -16z m-276 -63 c-11 -7 -10
-11 5 -20 12 -6 14 -11 5 -11 -10 0 -11 -3 -2 -14 10 -11 9 -14 -4 -12 -8 1
-21 8 -28 15 -6 7 -7 11 -2 9 6 -2 11 2 12 7 0 6 -4 9 -10 7 -6 -2 -5 4 3 12
7 9 18 16 24 16 6 0 5 -4 -3 -9z m-591 -405 c0 -2 -8 -10 -17 -17 -16 -13 -17
-12 -4 4 13 16 21 21 21 13z m-272 -56 c-7 -10 -16 -17 -20 -14 -4 3 -2 13 4
24 7 10 16 17 20 14 4 -3 2 -13 -4 -24z m77 -35 c0 -18 -5 -31 -10 -28 -6 2
-11 12 -11 23 0 10 4 16 8 14 4 -3 8 0 8 5 0 6 -5 11 -11 11 -5 0 -7 5 -4 11
11 17 20 0 20 -36z m-143 10 c3 3 4 -4 3 -15 -1 -11 -4 -22 -7 -26 -4 -3 -4
-13 -1 -22 4 -13 3 -14 -5 -4 -5 7 -7 24 -4 38 2 14 0 24 -7 24 -7 0 -10 -4
-6 -9 3 -5 1 -12 -5 -16 -6 -4 -8 -10 -5 -15 3 -5 2 -11 -3 -14 -5 -3 -7 12
-6 32 2 47 1 44 23 33 10 -6 20 -8 23 -6z m108 -39 c0 -11 -19 -15 -25 -6 -3
5 1 10 9 10 9 0 16 -2 16 -4z m-173 -28 c-3 -8 -6 -5 -6 6 -1 11 2 17 5 13 3
-3 4 -12 1 -19z"/>
<path d="M6243 8153 c-3 -8 -1 -19 6 -26 21 -21 11 -30 -11 -11 -14 12 -18 13
-10 3 6 -9 8 -20 4 -24 -4 -5 -2 -5 5 -1 6 3 14 2 18 -4 11 -17 26 0 16 18 -5
9 -5 26 -1 37 6 16 4 22 -7 22 -8 0 -17 -7 -20 -14z m14 -15 c-3 -8 -6 -5 -6
6 -1 11 2 17 5 13 3 -3 4 -12 1 -19z"/>
<path d="M6205 8080 c-3 -5 -1 -10 4 -10 6 0 11 5 11 10 0 6 -2 10 -4 10 -3 0
-8 -4 -11 -10z"/>
<path d="M6230 8053 c0 -5 9 -18 20 -28 11 -10 20 -14 20 -8 0 5 -9 18 -20 28
-11 10 -20 14 -20 8z"/>
<path d="M6092 7900 c0 -14 2 -19 5 -12 2 6 2 18 0 25 -3 6 -5 1 -5 -13z"/>
<path d="M5863 7545 c1 -5 -3 -9 -10 -8 -7 2 -10 -4 -6 -13 5 -15 7 -15 15 0
5 8 16 20 26 25 15 9 14 10 -5 8 -12 0 -21 -6 -20 -12z"/>
<path d="M3487 7419 c-90 -21 -187 -90 -322 -230 -247 -257 -475 -611 -535
-832 -14 -49 -24 -127 -29 -215 l-7 -137 -7 95 c-4 52 -14 201 -22 330 -15
233 -25 307 -43 319 -5 3 -8 16 -7 29 2 28 -1 28 -16 1 -6 -12 -7 -19 -1 -15
6 4 8 -2 5 -14 -3 -11 -9 -23 -14 -26 -5 -3 -6 2 -3 11 4 8 1 21 -5 29 -6 7
-8 16 -4 19 3 4 0 14 -8 23 -12 14 -14 14 -27 -3 -14 -17 -14 -17 -9 4 3 13 2
25 -2 28 -8 4 -11 -13 -11 -59 1 -44 -8 -62 -32 -63 -11 -1 -25 -8 -29 -15 -7
-10 -9 -10 -9 0 0 18 -47 15 -54 -4 -3 -9 -4 -19 -1 -24 2 -4 -9 -10 -25 -14
-20 -3 -30 -11 -30 -23 0 -11 3 -14 8 -7 10 16 41 13 35 -3 -3 -7 -9 -10 -14
-7 -5 3 -8 0 -7 -8 2 -7 -4 -12 -12 -10 -8 2 -11 0 -7 -5 5 -4 12 -8 17 -8 4
0 17 -11 29 -25 12 -14 20 -20 19 -15 -2 6 1 10 7 10 5 0 9 -3 8 -7 -2 -5 0
-7 5 -5 12 4 15 -7 8 -31 -4 -12 -11 -20 -15 -18 -9 6 -6 -42 4 -51 4 -5 5 -2
0 6 -5 9 -4 12 3 8 6 -5 8 0 5 13 -3 12 0 20 6 20 7 0 9 5 6 11 -4 6 2 5 13
-2 17 -11 18 -14 6 -27 -8 -7 -11 -18 -8 -24 4 -7 2 -8 -4 -4 -6 3 -15 -2 -21
-11 -6 -10 -11 -12 -11 -5 0 6 -9 12 -19 12 -22 0 -36 -16 -23 -24 11 -6 9
-43 -3 -53 -4 -5 -5 -2 0 6 5 9 4 12 -3 7 -14 -9 -16 -66 -2 -66 5 0 7 -7 3
-16 -5 -13 -9 -10 -19 12 l-13 29 6 -30 c3 -16 11 -33 17 -37 8 -6 8 -8 0 -8
-13 0 -32 20 -32 33 0 5 -3 11 -5 14 -9 9 -1 -21 11 -45 7 -12 18 -20 23 -16
7 4 7 -2 -1 -15 -6 -12 -15 -19 -21 -15 -6 3 -8 -4 -6 -18 2 -12 2 -17 0 -10
-3 6 -9 12 -14 12 -6 0 -7 -4 -4 -10 3 -5 2 -10 -4 -10 -5 0 -12 6 -15 13 -3
6 -4 3 -3 -8 1 -11 -3 -19 -8 -18 -6 1 -12 -8 -12 -19 -1 -12 -8 -25 -15 -29
-10 -7 -10 -9 1 -9 11 0 10 -4 -4 -13 -13 -10 -15 -16 -6 -21 7 -4 9 -17 6
-29 -5 -17 -4 -19 4 -7 8 11 11 11 12 3 4 -37 20 -64 33 -56 6 4 5 -1 -3 -10
-7 -9 -10 -17 -6 -17 4 0 2 -7 -5 -15 -10 -12 -10 -18 1 -31 18 -22 20 -44 3
-37 -8 3 -14 9 -14 13 0 5 -9 7 -21 5 -15 -3 -23 2 -26 16 -5 16 -8 18 -14 7
-6 -9 -9 -9 -9 -1 0 6 5 15 11 19 8 4 7 9 -2 16 -12 8 -12 9 0 6 8 -2 16 -15
18 -28 4 -29 16 -43 13 -15 -1 11 -1 22 0 25 10 27 6 38 -12 35 -12 -3 -34 5
-50 16 -19 14 -28 16 -26 7 2 -7 -3 -12 -9 -10 -7 1 -13 -3 -13 -9 0 -6 13 -8
30 -5 29 4 30 3 30 -34 0 -35 -12 -56 -35 -60 -5 -1 -12 -4 -15 -7 -3 -2 0 -4
5 -3 22 5 27 -1 14 -17 -13 -16 -12 -17 3 -5 14 11 18 10 28 -5 10 -16 11 -16
6 -1 -3 10 -1 20 4 23 6 4 10 12 10 18 0 8 -3 8 -9 -2 -6 -9 -11 -10 -15 -2
-4 6 -2 11 3 11 20 0 26 -5 27 -20 1 -22 -16 -51 -25 -45 -5 3 -12 -2 -15 -11
-3 -9 -12 -14 -20 -11 -13 5 -30 -25 -27 -46 1 -5 -3 -6 -8 -3 -5 3 -11 -1
-15 -9 -3 -8 -1 -17 4 -20 4 -3 7 -16 5 -30 -1 -14 2 -28 7 -31 4 -3 5 -10 2
-16 -4 -6 -8 -25 -10 -43 -1 -17 -4 -35 -5 -41 -5 -25 1 -36 14 -25 10 8 14 7
14 -4 0 -8 -4 -12 -9 -9 -4 3 -8 -5 -9 -18 -1 -20 -2 -19 -11 7 -5 17 -9 40
-9 53 1 13 -4 33 -10 44 -6 11 -8 22 -5 25 3 3 10 -5 15 -18 l10 -24 -2 27
c-1 15 -5 25 -9 22 -4 -2 -5 5 -3 16 2 11 1 18 -3 16 -5 -3 -9 5 -9 16 -3 30
-11 34 -31 13 -16 -18 -16 -18 2 -4 18 12 19 12 13 -3 -3 -9 1 -22 9 -29 10
-8 11 -15 3 -25 -7 -9 -7 -18 0 -33 13 -23 15 -54 3 -47 -5 3 -9 -1 -9 -9 0
-8 4 -12 8 -9 11 7 23 -42 13 -57 -4 -8 -3 -9 5 -5 7 4 15 -2 21 -16 9 -20 10
-20 9 -3 -2 40 1 51 10 37 4 -8 7 -24 5 -37 -2 -18 2 -22 14 -18 15 6 15 4 -1
-14 -14 -16 -15 -23 -6 -29 7 -4 10 -3 6 3 -4 6 2 18 13 28 18 16 30 8 13 -9
-4 -3 -8 -13 -9 -22 -2 -12 1 -13 11 -4 11 9 14 8 14 -7 2 -52 6 -71 13 -67 5
3 6 9 3 14 -3 5 0 12 6 16 8 5 10 -1 7 -20 -4 -18 -2 -24 4 -18 7 7 7 23 0 49
-8 30 -10 33 -11 13 -1 -19 -4 -21 -10 -11 -12 18 -2 44 14 37 7 -2 16 -1 21
2 5 4 6 3 2 -2 -11 -14 -10 -48 1 -41 5 3 13 0 17 -7 4 -7 3 -9 -2 -5 -9 9
-33 -73 -25 -88 3 -5 7 -18 8 -29 3 -16 1 -17 -14 -5 -16 13 -17 12 -4 -3 7
-10 17 -16 21 -13 4 3 10 -9 14 -25 6 -34 5 -46 -6 -42 -13 4 -9 -5 9 -19 10
-8 14 -9 10 -2 -4 6 -3 14 3 18 5 3 10 -3 10 -14 0 -12 -3 -21 -7 -21 -20 0
-123 67 -116 75 4 4 3 5 -3 2 -12 -7 -39 4 -89 38 -39 26 -51 34 -160 99 -149
89 -157 94 -226 130 l-66 35 -31 -117 c-71 -261 -130 -542 -157 -745 -17 -135
-20 -421 -5 -547 21 -169 91 -337 198 -471 101 -127 185 -193 325 -259 117
-55 186 -70 318 -70 135 0 126 3 410 -158 107 -60 313 -177 459 -260 884 -500
1267 -731 1508 -908 112 -83 310 -253 444 -381 64 -62 121 -113 126 -113 5 0
69 57 143 126 176 166 254 228 494 392 224 153 455 297 875 542 558 326 594
346 1173 665 l178 98 97 3 c190 5 384 97 546 261 197 198 276 407 276 728 0
283 -40 534 -168 1064 -25 104 -29 114 -51 118 -14 2 -25 4 -25 6 -25 84 -115
340 -133 379 -15 29 -27 60 -29 68 -8 41 -28 90 -40 94 -11 4 -11 0 1 -18 13
-20 13 -23 0 -23 -8 0 -12 3 -10 7 3 4 -4 15 -15 25 -11 10 -21 14 -21 9 -1
-5 -3 -27 -5 -49 -5 -65 -7 -74 -18 -72 -6 1 -10 -4 -8 -12 2 -11 0 -12 -11
-2 -12 9 -16 7 -20 -11 -4 -12 -9 -19 -12 -16 -9 9 14 50 25 43 5 -3 11 -1 15
5 3 5 1 10 -5 10 -6 0 -8 5 -4 11 4 8 9 7 15 -2 9 -15 11 -11 13 39 1 18 -1
35 -5 37 -4 3 -5 -11 -3 -31 3 -35 3 -36 -16 -19 -19 17 -19 17 -15 -4 2 -12
-4 -30 -13 -39 -13 -13 -17 -32 -15 -77 1 -37 -2 -54 -7 -45 -5 8 -7 17 -4 21
2 4 -2 12 -10 18 -11 9 -13 7 -12 -11 1 -15 -4 -22 -13 -20 -12 3 -12 1 0 -14
8 -9 13 -20 12 -23 -1 -3 0 -8 3 -10 2 -2 2 6 -1 17 -2 12 0 24 6 27 5 4 10 0
10 -7 1 -7 2 -20 3 -28 1 -8 -2 -23 -7 -34 -6 -13 -6 -16 2 -12 6 4 11 2 11
-3 0 -6 -9 -11 -21 -11 -11 0 -18 4 -15 8 3 5 -2 9 -10 9 -10 0 -11 -4 -4 -11
18 -18 11 -30 -8 -13 -15 14 -19 15 -19 2 0 -8 4 -12 8 -9 12 7 18 -11 8 -26
-5 -9 -9 -10 -9 -4 0 7 -7 15 -16 18 -13 5 -14 4 -6 -7 7 -8 8 -18 4 -22 -4
-5 -1 -5 7 0 10 6 12 4 6 -6 -8 -12 -6 -12 8 0 15 12 17 11 17 -4 0 -10 -3
-15 -7 -12 -10 11 -32 -13 -26 -29 4 -11 10 -8 25 11 16 21 23 23 34 14 17
-14 13 -34 -7 -34 -8 -1 -13 -6 -12 -12 2 -7 -6 -10 -17 -8 -22 4 -53 -31 -43
-49 3 -6 3 -8 -2 -4 -9 9 -35 -9 -35 -24 0 -5 6 -6 13 -2 6 4 4 -2 -6 -13 -9
-11 -14 -23 -10 -27 5 -4 2 -6 -6 -4 -7 2 -16 -3 -19 -11 -3 -8 0 -11 7 -7 7
5 9 1 4 -10 -5 -13 -3 -15 8 -9 8 5 -8 -17 -35 -48 -46 -54 -59 -66 -53 -49 1
4 -1 8 -5 10 -5 1 -9 -1 -9 -5 -1 -5 -10 -14 -21 -22 -18 -12 -18 -15 -4 -30
15 -16 14 -19 -6 -37 -23 -18 -23 -18 -6 1 17 18 17 20 -5 44 -12 13 -17 21
-10 17 6 -3 14 -2 17 3 9 14 -20 21 -34 8 -10 -9 -11 -9 -6 1 4 7 2 12 -6 12
-7 1 -2 8 12 16 14 8 17 13 8 10 -15 -4 -18 1 -18 29 0 18 -4 36 -9 40 -6 3
-8 14 -6 25 7 37 -15 89 -44 105 -16 8 -31 11 -35 8 -3 -4 -6 -1 -6 5 0 17
-98 8 -141 -13 -23 -11 -36 -24 -34 -34 1 -9 -5 -23 -14 -31 -9 -8 -16 -19
-17 -25 0 -5 -6 -23 -13 -40 -14 -32 -21 -136 -8 -128 4 2 10 -3 13 -11 3 -9
9 -14 13 -12 4 3 12 -8 19 -24 7 -15 26 -33 42 -40 17 -7 30 -15 30 -19 0 -12
95 -6 118 7 22 13 23 12 13 -7 -16 -29 -14 -34 13 -29 17 3 23 1 19 -8 -2 -7
-12 -10 -21 -8 -13 4 -13 3 2 -6 14 -10 20 -9 28 1 7 11 8 9 6 -6 -2 -11 2
-19 9 -18 8 2 10 -7 6 -25 -3 -15 -6 -32 -7 -39 -1 -7 -5 -16 -9 -19 -11 -11
-8 25 3 46 7 13 7 21 0 25 -6 3 -10 -4 -11 -17 0 -22 -1 -22 -8 -3 -5 11 -4
23 1 26 5 3 2 9 -7 13 -24 9 -32 7 -15 -4 13 -8 12 -10 -2 -10 -10 0 -18 6
-19 13 0 6 -4 3 -9 -8 -13 -31 -11 -36 10 -23 27 17 33 6 21 -38 -13 -47 -6
-58 8 -13 l11 34 -5 -32 c-3 -25 -1 -33 10 -33 8 0 15 -5 15 -10 0 -7 -6 -7
-17 -2 -10 5 -25 8 -34 7 -12 -2 -15 3 -12 19 2 11 -6 2 -18 -21 -24 -46 -48
-61 -61 -41 -6 11 -8 10 -8 0 0 -8 -5 -10 -12 -5 -7 4 -5 -5 5 -20 19 -30 12
-37 -10 -9 -10 13 -13 13 -11 2 2 -8 -2 -14 -9 -13 -6 1 -17 -5 -25 -14 -9
-12 -9 -15 0 -9 7 4 12 2 12 -7 0 -8 -7 -18 -16 -21 -22 -9 -26 -8 -18 6 4 7
3 8 -4 4 -7 -4 -12 -14 -12 -22 0 -11 -8 -13 -32 -9 -27 5 -30 4 -18 -10 7 -8
8 -15 4 -15 -5 0 -15 9 -22 21 -8 12 -9 18 -4 15 5 -3 12 4 15 16 4 15 3 18
-5 10 -9 -9 -17 -7 -32 6 -15 12 -17 12 -9 2 7 -9 11 -26 10 -37 -1 -18 -4
-20 -16 -10 -12 10 -14 9 -8 -6 4 -11 3 -16 -4 -12 -6 4 -8 13 -5 21 3 8 -1
14 -9 14 -8 0 -15 4 -15 10 0 14 23 8 37 -10 7 -9 12 -10 13 -4 0 6 -7 17 -15
24 -8 7 -15 9 -15 4 0 -5 -5 -1 -11 9 -5 9 -7 22 -3 29 5 7 3 8 -6 3 -7 -4
-16 -2 -21 6 -7 11 -9 11 -9 -3 0 -9 5 -20 10 -23 14 -9 12 -45 -2 -42 -28 5
-39 26 -28 49 10 21 10 22 -4 5 -8 -10 -16 -17 -19 -15 -3 2 -9 -1 -14 -6 -5
-5 -2 -6 6 -1 9 5 12 3 9 -6 -6 -18 -40 -18 -56 1 -10 13 -11 12 -5 -4 4 -12
3 -17 -4 -13 -6 4 -16 1 -22 -7 -9 -10 -7 -17 5 -27 15 -12 16 -11 10 11 -5
17 -4 21 2 11 8 -10 10 -11 14 0 2 7 10 -2 18 -20 9 -23 10 -35 2 -43 -8 -8
-9 -4 -5 13 5 23 5 24 -10 4 -8 -11 -19 -17 -23 -12 -4 4 -2 7 4 7 7 0 12 5
12 11 0 5 -4 8 -9 4 -5 -3 -12 -1 -16 5 -3 5 -11 10 -17 10 -6 0 -5 -7 3 -17
7 -10 9 -15 5 -11 -5 4 -16 2 -25 -5 -14 -10 -14 -10 -4 4 10 12 10 18 0 29
-8 8 -8 11 -1 7 7 -4 14 -1 17 7 8 21 -4 28 -22 13 -14 -10 -14 -10 -4 4 17
21 6 31 -21 18 -20 -10 -20 -10 -2 5 11 9 17 17 13 17 -4 1 -11 2 -16 3 -5 0
-12 4 -16 8 -4 3 1 5 12 4 10 -2 25 2 33 8 13 9 13 9 2 -6 -8 -10 -9 -19 -3
-22 5 -3 12 0 14 6 3 7 6 3 6 -9 2 -37 19 -35 30 4 6 20 8 39 6 42 -3 2 -5 -2
-5 -10 0 -12 -2 -11 -10 1 -7 11 -9 5 -5 -20 4 -31 4 -32 -4 -8 -5 14 -11 31
-15 36 -3 5 7 8 22 7 21 -1 27 -6 26 -23 0 -11 3 -19 8 -16 4 3 8 12 8 20 0 8
4 14 10 14 5 0 7 -6 4 -14 -7 -18 12 -30 22 -15 5 8 3 9 -6 4 -10 -6 -12 -4
-7 8 4 11 -1 21 -16 29 -12 6 -23 11 -24 10 -10 -7 -23 0 -18 8 11 18 14 51 4
45 -5 -4 -7 -10 -4 -15 11 -19 -13 -18 -30 0 -10 11 -15 21 -12 21 4 1 16 3
27 4 11 1 23 3 27 4 3 0 -2 10 -12 21 -10 11 -21 18 -25 15 -4 -2 -7 2 -7 9 0
7 6 13 13 13 7 0 12 -5 11 -11 -1 -5 5 -11 13 -12 32 -3 35 -5 20 -14 -10 -6
-11 -10 -2 -10 6 0 12 -5 12 -11 0 -5 -4 -8 -9 -5 -5 4 -7 -4 -3 -16 5 -20 6
-21 12 -3 4 13 9 15 14 7 4 -7 4 -12 0 -12 -4 0 0 -8 9 -18 10 -10 14 -22 10
-27 -5 -4 -2 -5 5 -1 11 7 11 11 -1 24 -8 10 -13 25 -12 35 2 9 -1 15 -6 11
-5 -3 -10 0 -10 5 -4 34 -2 46 8 44 6 -1 19 8 29 20 10 12 15 19 10 15 -5 -4
-16 -2 -24 5 -11 8 -14 8 -9 0 4 -6 3 -14 -3 -18 -6 -4 -10 5 -10 20 0 17 4
24 12 19 7 -5 8 -3 3 6 -6 10 -4 12 8 7 24 -9 21 0 -4 14 -17 9 -20 8 -14 -2
5 -7 4 -10 -1 -6 -8 5 -14 -19 -17 -70 0 -9 -4 -10 -14 -2 -7 6 -13 21 -12 33
1 19 2 18 9 -4 l8 -25 1 27 c1 15 -3 30 -9 33 -5 3 -10 12 -10 18 0 8 3 8 9
-2 11 -17 17 -4 17 37 -1 24 3 32 17 32 17 0 17 -2 3 -22 -21 -30 -20 -34 7
-35 12 0 16 1 10 4 -7 3 -13 12 -13 21 0 12 3 13 12 4 7 -7 19 -12 28 -11 11
0 10 3 -4 8 -23 9 -33 80 -13 93 9 6 9 8 0 8 -7 0 -13 4 -13 9 0 5 9 7 20 4
11 -3 17 -10 13 -17 -3 -7 -1 -6 7 1 8 7 14 35 14 63 1 43 6 54 31 75 17 13
25 24 18 25 -6 0 -13 -5 -15 -12 -3 -7 -7 -4 -12 7 -4 11 -4 16 0 13 12 -13
43 11 41 32 -1 10 -3 17 -6 15 -2 -3 -11 1 -20 7 -12 10 -12 8 2 -8 9 -11 17
-25 17 -30 0 -5 -5 -1 -11 9 -6 9 -14 15 -19 12 -4 -3 -7 3 -5 12 2 10 4 22 4
27 1 5 9 2 19 -5 15 -13 16 -12 4 3 -8 10 -10 23 -6 30 5 8 1 8 -11 -2 -17
-14 -18 -14 -1 17 23 46 40 87 38 96 -1 4 4 7 11 7 6 0 4 5 -5 11 -10 5 -18
15 -18 22 0 7 4 6 10 -3 16 -24 32 8 25 51 -3 22 4 68 17 115 17 65 21 107 22
234 0 153 -1 157 -36 255 -49 139 -102 241 -209 400 -203 304 -446 572 -579
638 -91 46 -166 50 -245 13 -88 -40 -162 -136 -495 -633 -172 -257 -342 -509
-376 -559 -111 -160 -134 -207 -134 -276 0 -67 45 -215 104 -343 56 -122 234
-425 350 -595 223 -330 300 -421 395 -467 49 -25 67 -28 152 -28 90 0 99 2
173 39 66 32 98 58 200 160 67 67 137 143 156 169 51 68 57 66 59 -18 4 -131
-51 -278 -129 -349 -98 -89 -252 -167 -541 -274 -522 -195 -907 -272 -1363
-272 -349 0 -667 53 -1006 167 -120 40 -368 141 -442 179 -15 8 -31 14 -34 13
-4 0 -10 4 -13 9 -3 6 -69 40 -146 77 -327 157 -337 163 -364 220 -28 59 -33
112 -17 174 25 92 35 93 96 14 104 -133 251 -257 344 -292 23 -8 76 -15 121
-15 103 0 153 24 253 118 101 96 190 223 384 546 259 430 337 601 346 756 5
94 -7 126 -103 259 -32 44 -174 253 -315 465 -310 463 -401 590 -483 671 -91
91 -188 129 -280 108z m178 -447 c103 -35 155 -97 390 -452 321 -487 336 -515
343 -631 8 -134 -25 -213 -216 -519 -235 -376 -256 -404 -326 -444 -93 -54
-205 -38 -282 40 -62 61 -154 207 -266 419 -53 99 -137 250 -187 335 -138 234
-174 338 -174 505 0 83 5 114 28 183 102 301 388 581 595 581 25 0 68 -7 95
-17z m3122 -14 c181 -67 421 -373 489 -623 24 -91 29 -256 10 -339 -27 -114
-147 -345 -226 -436 -17 -19 -60 -93 -96 -165 -164 -326 -271 -469 -368 -494
-58 -14 -72 -14 -134 4 -70 21 -142 90 -221 212 -34 54 -105 163 -157 243
-103 157 -181 303 -210 390 -25 76 -24 191 3 251 41 90 510 801 582 881 92
103 194 127 328 76z m-4322 -157 c3 -5 2 -12 -3 -15 -5 -3 -9 1 -9 9 0 17 3
19 12 6z m-108 -186 c-4 -8 -2 -17 3 -20 6 -4 11 2 11 12 1 17 2 17 6 0 2 -9
9 -15 14 -11 5 3 7 9 5 13 -3 4 1 8 9 8 8 0 12 -4 9 -9 -5 -7 10 -12 29 -9 5
1 6 -3 2 -8 -3 -6 -12 -8 -20 -4 -11 4 -15 -2 -15 -23 0 -23 2 -26 10 -14 7
11 10 11 10 2 0 -8 5 -10 13 -6 9 6 9 4 -1 -7 -12 -13 -93 -22 -89 -10 1 3 -7
18 -19 33 -17 21 -22 23 -30 12 -7 -13 -11 -12 -21 5 -10 16 -9 22 4 33 10 8
14 8 10 1 -4 -6 -3 -14 3 -18 5 -3 11 2 11 12 1 17 2 17 6 0 2 -9 9 -15 14
-11 5 3 6 10 3 16 -4 7 -2 8 4 4 7 -4 12 -2 12 3 0 6 3 11 6 11 3 0 4 -7 1
-15z m-51 -210 c0 -20 -11 -27 -11 -7 0 4 -4 13 -8 20 -5 7 -3 12 5 12 8 0 14
-11 14 -25z m-29 -77 c-3 -8 -6 -5 -6 6 -1 11 2 17 5 13 3 -3 4 -12 1 -19z
m-73 -177 c-10 -10 -21 -17 -23 -15 -6 6 20 34 32 34 6 0 2 -8 -9 -19z m-4
-138 c0 -19 -13 -9 -16 12 -1 8 2 13 7 9 5 -3 9 -12 9 -21z m6242 -62 c2 -22
0 -37 -3 -35 -9 5 -17 74 -8 74 4 0 9 -18 11 -39z m-7 -50 c3 -5 2 -12 -3 -15
-5 -3 -9 1 -9 9 0 17 3 19 12 6z m-5955 -16 c15 -18 6 -61 -16 -69 -21 -8 -54
11 -54 31 0 20 28 53 45 53 7 0 18 -7 25 -15z m-298 -47 c-6 -6 -12 -6 -17 3
-5 8 -4 10 3 5 7 -4 12 0 13 11 0 12 2 13 6 5 3 -8 1 -18 -5 -24z m6191 0 c-4
-7 -8 -16 -8 -20 0 -18 -15 -18 -15 0 0 17 8 26 28 31 2 1 0 -5 -5 -11z
m-6064 -67 c69 -37 92 -127 48 -192 -28 -42 -60 -59 -112 -58 -50 0 -77 15
-110 59 -27 37 -31 75 -11 130 22 62 121 95 185 61z m6064 -12 c7 -1 14 -1 18
-1 6 1 4 -66 -3 -73 -2 -3 -5 1 -6 8 -3 42 -7 57 -15 57 -4 0 -7 -8 -5 -17 2
-10 -2 -17 -8 -16 -8 1 -10 -6 -6 -19 5 -21 6 -21 13 -2 6 16 8 16 8 2 1 -9
-3 -20 -9 -23 -5 -3 -10 -11 -10 -16 0 -6 5 -7 10 -4 6 4 10 3 9 -2 -3 -20 2
-27 12 -13 8 12 9 10 4 -9 -6 -18 -4 -22 6 -15 12 6 12 5 0 -9 -14 -18 -26
-24 -17 -8 3 4 -1 17 -10 27 -14 18 -15 18 -9 -6 5 -19 4 -22 -4 -10 -10 13
-11 13 -11 0 -1 -9 -6 -6 -16 10 l-15 25 5 -24 5 -24 -21 20 c-23 23 -18 40
18 53 19 7 22 15 19 39 -4 32 17 93 23 66 2 -8 9 -16 15 -16z m-756 -41 c-3
-7 -5 -2 -5 12 0 14 2 19 5 13 2 -7 2 -19 0 -25z m740 -145 c0 -9 -4 -10 -14
-2 -7 6 -13 12 -13 14 0 1 6 2 13 2 8 0 14 -6 14 -14z m-462 -63 c25 0 55 -33
55 -60 0 -8 9 -33 21 -54 26 -49 22 -90 -8 -94 -13 -2 -23 -10 -23 -18 0 -9
-13 -29 -29 -45 -23 -23 -38 -29 -71 -29 -53 0 -80 15 -80 43 0 14 -12 32 -30
45 -25 19 -30 30 -30 62 0 22 3 40 8 40 4 0 15 20 25 45 20 48 55 72 100 71
15 -1 27 3 28 9 0 5 3 4 6 -2 2 -7 15 -13 28 -13z m402 -35 c0 -8 -4 -12 -9
-9 -5 3 -6 10 -3 15 9 13 12 11 12 -6z m-6187 -19 c0 -6 5 -4 11 4 8 12 9 10
4 -7 -5 -19 -3 -21 16 -18 12 2 18 1 15 -3 -4 -4 -12 -8 -17 -8 -5 -1 -10 -2
-11 -4 -2 -1 -11 -3 -21 -5 -14 -3 -16 -1 -7 10 12 14 5 39 -9 31 -4 -3 -13
-1 -20 3 -9 6 -4 9 13 9 14 0 26 -6 26 -12z m68 -129 c-1 -3 8 -18 22 -33 14
-16 18 -23 9 -16 -11 8 -18 9 -27 0 -8 -8 -4 -20 17 -47 19 -24 26 -42 22 -55
-9 -23 -2 -78 9 -71 4 3 6 21 4 40 -1 19 0 36 4 39 10 6 9 -66 -1 -82 -12 -18
-27 -5 -27 23 0 13 -4 27 -10 30 -8 5 -33 78 -32 95 0 3 -4 10 -8 16 -6 6 -4
21 4 36 8 15 12 29 10 32 -2 3 -1 4 2 2 3 -2 4 -7 2 -9z m5346 -20 c4 -24 3
-26 -15 -17 -22 12 -26 22 -5 14 11 -4 13 0 9 18 -3 13 -3 21 0 18 3 -3 8 -18
11 -33z m553 -52 c0 -8 -4 -12 -9 -9 -5 3 -6 10 -3 15 9 13 12 11 12 -6z m-53
-14 c13 -14 14 -21 5 -27 -7 -4 -10 -3 -6 3 9 14 -19 37 -34 27 -8 -4 -9 -3
-5 4 10 17 20 15 40 -7z m-48 -33 c4 -7 4 -10 -1 -6 -4 4 -15 2 -24 -5 -14
-11 -14 -10 -2 6 16 20 18 21 27 5z m96 -10 c-9 -9 -9 -15 1 -27 11 -14 10
-14 -6 -2 -13 10 -15 17 -6 27 6 8 14 14 17 14 3 0 1 -5 -6 -12z m-61 -21
c-10 -9 -11 -8 -5 6 3 10 9 15 12 12 3 -3 0 -11 -7 -18z m-27 5 c3 -5 -1 -9
-9 -9 -8 0 -12 4 -9 9 3 4 7 8 9 8 2 0 6 -4 9 -8z m68 -41 c-7 -13 -9 -65 -3
-86 0 -3 1 -8 0 -11 0 -4 5 -11 13 -15 10 -7 8 -9 -6 -9 -12 0 -16 5 -13 15 4
8 3 17 -2 19 -8 5 -8 65 0 96 2 8 -2 14 -9 12 -8 -1 -11 2 -7 8 11 18 36 -9
27 -29z m-66 3 c-1 -8 -6 -17 -12 -21 -5 -4 -6 -4 -2 1 4 5 3 14 -2 21 -7 8
-5 12 4 12 8 0 13 -6 12 -13z m37 3 c9 5 9 3 1 -8 -6 -8 -10 -31 -9 -52 1 -24
-4 -42 -14 -50 -13 -10 -14 -10 -5 3 6 8 10 40 9 70 -1 30 0 49 2 42 3 -6 10
-9 16 -5z m54 -12 c0 -8 -4 -12 -9 -9 -5 3 -6 10 -3 15 9 13 12 11 12 -6z m13
-30 c0 -2 -6 -8 -13 -14 -10 -8 -14 -7 -14 2 0 8 6 14 14 14 7 0 13 -1 13 -2z
m30 -29 c0 -3 -4 -8 -10 -11 -5 -3 -10 -1 -10 4 0 6 5 11 10 11 6 0 10 -2 10
-4z m-725 -145 c-4 -3 -10 1 -14 8 -7 11 -9 11 -14 0 -3 -8 -4 -4 -4 8 1 21 2
21 19 6 10 -9 16 -19 13 -22z m-48 7 c-3 -8 -6 -5 -6 6 -1 11 2 17 5 13 3 -3
4 -12 1 -19z m530 -34 c-3 -3 -12 -4 -19 -1 -8 3 -5 6 6 6 11 1 17 -2 13 -5z
m-5727 -34 c7 0 209 -209 573 -592 86 -92 164 -182 172 -201 17 -42 72 -511
63 -552 -2 -13 -63 34 -243 191 -285 247 -562 500 -645 591 -36 40 -62 78 -65
97 -4 17 -5 115 -3 218 3 182 4 187 27 212 26 27 76 47 99 40 8 -2 17 -4 22
-4z m6127 -48 c21 -26 22 -36 23 -225 0 -151 -3 -204 -14 -225 -17 -34 -280
-291 -436 -428 -207 -180 -512 -423 -534 -424 -4 0 -6 19 -2 43 3 23 8 92 11
152 10 186 26 307 43 341 29 56 753 797 794 813 30 11 86 -11 115 -47z m-734
-5 c4 3 7 1 7 -5 0 -6 8 -9 18 -6 13 5 14 4 3 -4 -8 -6 -21 -7 -30 -4 -14 5
-14 4 -1 -14 14 -18 14 -18 -2 -5 -10 7 -16 17 -13 21 3 5 1 11 -5 15 -5 3
-11 -2 -11 -12 -1 -17 -2 -17 -6 0 -2 9 -9 15 -14 12 -5 -4 -5 -14 1 -25 7
-13 7 -21 -2 -26 -6 -4 -8 -3 -5 3 4 6 0 19 -8 29 -19 25 -19 38 0 31 8 -4 17
-2 21 4 4 7 12 5 23 -5 10 -9 21 -13 24 -9z m-4233 -727 c0 -5 -2 -10 -4 -10
-3 0 -8 5 -11 10 -3 6 -1 10 4 10 6 0 11 -4 11 -10z m731 -232 c-7 -13 -24
-31 -37 -42 -25 -18 -26 -18 -51 5 -47 45 -48 57 -6 95 l37 34 35 -34 c31 -32
34 -37 22 -58z m3127 -220 c-3 -7 -11 -13 -18 -13 -7 0 -15 6 -17 13 -3 7 4
12 17 12 13 0 20 -5 18 -12z m-514 -47 c30 -32 28 -48 -13 -85 -21 -19 -22
-19 -51 9 -17 16 -30 33 -30 39 0 11 50 66 60 66 3 0 19 -13 34 -29z m236
-181 l20 -20 -20 -22 c-19 -21 -20 -21 -40 -3 -25 22 -25 34 -2 51 22 17 19
17 42 -6z m-1958 -171 c3 -30 6 -114 7 -188 1 -120 3 -132 17 -120 13 10 17
10 25 -2 7 -12 9 -12 10 1 1 8 1 19 0 24 -1 5 5 4 13 -4 14 -10 16 -10 17 6 1
17 2 17 6 2 2 -10 9 -18 14 -18 6 0 7 5 3 12 -4 7 -3 8 4 4 7 -4 12 -17 13
-29 1 -20 2 -20 8 3 4 14 15 26 26 27 16 1 17 1 3 -3 -10 -3 -18 -13 -18 -22
0 -14 2 -14 9 -3 5 8 16 11 26 8 9 -4 13 -3 10 2 -3 5 -1 12 5 16 5 3 10 1 10
-4 0 -6 9 -11 21 -11 13 0 18 4 13 12 -4 6 3 4 16 -5 18 -12 27 -14 37 -5 7 6
13 7 14 2 0 -5 4 0 9 11 7 17 9 17 9 3 1 -10 6 -18 12 -18 8 0 8 -4 0 -13 -8
-10 -7 -14 4 -14 7 0 14 3 13 6 0 3 0 15 1 26 2 19 2 19 12 2 6 -10 9 -27 6
-38 -3 -10 -1 -22 4 -25 5 -3 9 48 9 120 0 158 9 171 101 146 43 -12 49 -26
49 -123 0 -39 4 -66 9 -62 5 3 11 -4 13 -16 4 -31 35 -32 54 -3 9 13 20 21 25
18 5 -3 9 1 10 8 0 10 2 10 6 1 2 -7 14 -13 26 -13 20 1 20 2 5 11 -10 5 -18
17 -18 25 0 8 5 12 10 9 6 -4 8 -11 5 -16 -4 -5 0 -9 8 -9 18 0 37 -84 37
-163 0 -122 -43 -224 -138 -327 -92 -101 -188 -145 -337 -157 -325 -24 -584
210 -574 521 2 61 18 118 19 71 1 -17 3 -17 11 5 13 31 13 32 33 24 9 -3 14
-10 11 -14 -3 -5 0 -12 6 -16 8 -4 9 -3 5 4 -4 7 -2 12 3 12 6 0 11 -8 12 -17
1 -12 4 -10 9 7 5 17 8 19 9 8 1 -10 6 -18 12 -18 5 0 7 5 3 12 -4 7 -3 8 5 4
6 -4 9 -11 6 -15 -2 -5 2 -17 9 -27 12 -16 14 4 15 150 1 113 6 174 13 184 17
20 111 72 123 69 6 -2 13 -28 17 -58z m279 -286 c13 -16 12 -17 -3 -4 -10 7
-18 15 -18 17 0 8 8 3 21 -13z m326 -6 c-2 -6 -11 -11 -21 -13 -13 -2 -14 1
-7 10 6 7 8 16 4 20 -4 4 1 4 10 0 10 -3 16 -11 14 -17z"/>
<path d="M2337 6593 c-4 -3 -7 -11 -7 -17 0 -6 5 -4 10 4 8 12 10 11 10 -6 0
-20 15 -33 45 -39 6 -1 10 12 10 30 0 39 -14 36 -16 -3 l-1 -27 -8 30 c-5 21
-8 24 -9 10 -2 -19 -3 -18 -11 3 -10 24 -13 26 -23 15z"/>
<path d="M8345 5749 c-4 -6 -5 -12 -2 -15 2 -3 7 2 10 11 7 17 1 20 -8 4z"/>
<path d="M8318 5663 c-16 -8 -28 -19 -28 -26 0 -7 4 -6 10 3 9 13 12 12 25 -4
8 -11 15 -16 16 -10 0 5 2 19 3 32 2 12 2 22 2 21 -1 -1 -13 -8 -28 -16z"/>
<path d="M2167 5289 c-4 -16 -3 -18 9 -8 7 6 11 15 8 20 -8 13 -11 11 -17 -12z"/>
<path d="M2183 5220 c8 -19 16 -42 19 -50 3 -11 6 -9 10 6 3 13 -4 31 -19 50
l-24 29 14 -35z"/>
<path d="M5004 2930 c2 -16 20 -14 24 2 3 10 2 10 -6 -1 -7 -9 -11 -10 -15 -2
-4 7 -5 8 -3 1z"/>
<path d="M5176 2932 c-3 -5 1 -9 9 -9 8 0 12 4 9 9 -3 4 -7 8 -9 8 -2 0 -6 -4
-9 -8z"/>
<path d="M4951 2894 c0 -11 3 -14 6 -6 3 7 2 16 -1 19 -3 4 -6 -2 -5 -13z"/>
<path d="M5647 7233 c4 -10 2 -14 -4 -10 -6 4 -10 -1 -9 -10 0 -10 -4 -18 -11
-18 -6 0 -15 -4 -20 -8 -4 -5 -3 -7 2 -5 11 3 15 -4 14 -29 0 -16 -2 -15 -10
2 -9 19 -9 18 -5 -2 2 -13 0 -26 -5 -29 -5 -3 -9 3 -9 13 0 14 -3 12 -14 -7
-8 -16 -9 -29 -3 -37 9 -12 3 -17 -17 -14 -5 1 -4 -5 3 -13 10 -12 17 -13 31
-3 15 9 17 14 7 26 -10 12 -9 13 2 6 11 -6 13 -4 8 8 -3 9 -2 19 4 23 6 3 14
17 20 31 5 13 13 22 18 19 5 -3 11 1 15 9 3 8 1 15 -4 15 -6 0 -10 5 -10 11 0
5 5 7 11 3 8 -4 8 0 0 15 -14 25 -23 28 -14 4z"/>
<path d="M5398 7103 c7 -3 16 -2 19 1 4 3 -2 6 -13 5 -11 0 -14 -3 -6 -6z"/>
<path d="M5512 7045 c15 -17 25 -22 32 -15 7 7 6 14 -3 23 -10 10 -11 8 -6 -8
5 -18 4 -18 -11 3 -9 12 -20 22 -25 22 -5 0 1 -11 13 -25z"/>
<path d="M4985 6639 c-4 -6 -5 -12 -2 -15 2 -3 7 2 10 11 7 17 1 20 -8 4z"/>
<path d="M4859 6623 c-13 -16 -12 -17 4 -4 16 13 21 21 13 21 -2 0 -10 -8 -17
-17z"/>
<path d="M2345 6479 c-4 -6 -5 -12 -2 -15 2 -3 7 2 10 11 7 17 1 20 -8 4z"/>
<path d="M2208 6222 c4 -10 7 -11 12 -2 4 7 13 9 19 6 6 -4 11 -2 11 3 0 6
-11 10 -24 9 -16 -2 -22 -7 -18 -16z"/>
<path d="M2166 5945 c-3 -9 -6 -24 -5 -33 0 -9 5 -4 10 12 9 32 6 48 -5 21z"/>
<path d="M2075 5829 c-4 -6 -5 -12 -2 -15 2 -3 7 2 10 11 7 17 1 20 -8 4z"/>
<path d="M2029 5813 c-1 -5 -1 -12 0 -17 1 -5 -4 -13 -11 -18 -10 -7 -10 -9 2
-5 8 2 16 13 16 25 1 20 -5 31 -7 15z"/>
<path d="M1992 5745 c-7 -9 -8 -15 -2 -15 5 0 10 -9 10 -19 0 -11 5 -23 10
-26 11 -7 8 30 -2 41 -4 3 -4 12 -1 20 7 18 2 17 -15 -1z"/>
<path d="M1953 5667 c0 -8 6 -14 14 -14 9 0 10 4 2 14 -6 7 -12 13 -14 13 -1
0 -2 -6 -2 -13z"/>
<path d="M8199 5633 c-10 -12 -10 -14 -1 -9 18 11 16 -93 -3 -118 -8 -11 -15
-15 -15 -10 0 6 5 15 11 21 6 6 9 21 7 34 -3 19 -6 15 -19 -23 -13 -38 -13
-48 -3 -48 17 0 55 50 47 63 -3 5 -1 7 5 3 18 -11 22 10 7 30 -8 10 -14 24
-15 29 0 6 4 4 9 -4 6 -9 11 -10 15 -2 4 6 0 14 -8 17 -9 3 -14 10 -11 14 10
17 -13 19 -26 3z"/>
<path d="M8266 5563 c-6 -14 -5 -15 5 -6 7 7 10 15 7 18 -3 3 -9 -2 -12 -12z"/>
<path d="M8172 5465 c4 -4 3 -14 -3 -22 -10 -11 -15 -11 -27 -1 -13 11 -14 11
-7 -1 11 -19 14 -81 3 -75 -5 3 -6 9 -3 14 3 4 -3 14 -12 21 -10 8 -14 9 -10
2 4 -6 3 -14 -3 -18 -5 -3 -10 1 -10 9 0 8 -4 18 -10 21 -6 3 -7 -1 -4 -10 4
-8 -2 -27 -12 -43 -15 -24 -15 -25 -1 -13 24 19 21 1 -4 -29 -13 -16 -19 -19
-15 -8 3 10 0 20 -7 24 -7 4 -9 4 -5 -1 4 -4 3 -17 -3 -28 -8 -14 -8 -18 0
-13 6 4 11 1 11 -6 0 -7 8 0 19 15 15 24 19 26 25 12 5 -14 9 -15 21 -5 8 7
15 18 15 24 0 6 9 17 20 24 17 10 19 16 9 33 -9 17 -7 25 11 44 17 18 19 25 8
31 -7 4 -10 4 -6 -1z m-47 -97 c-1 -13 -3 -29 -4 -36 -2 -25 -24 -7 -27 22 -3
27 -2 27 12 10 9 -11 13 -13 9 -6 -3 6 -3 17 0 22 10 16 12 12 10 -12z"/>
<path d="M8104 5449 c-3 -6 -2 -15 3 -20 5 -5 9 -1 9 11 0 23 -2 24 -12 9z"/>
<path d="M8033 5383 c0 -9 4 -10 14 -2 7 6 13 12 13 14 0 1 -6 2 -13 2 -8 0
-14 -6 -14 -14z"/>
<path d="M7552 5375 c4 -4 3 -14 -4 -22 -6 -7 -9 -15 -7 -18 3 -2 10 4 17 15
9 15 9 21 -1 26 -6 4 -9 4 -5 -1z"/>
<path d="M8013 5343 c0 -9 4 -10 14 -2 7 6 13 12 13 14 0 1 -6 2 -13 2 -8 0
-14 -6 -14 -14z"/>
<path d="M2119 5283 c-13 -16 -12 -17 4 -4 9 7 17 15 17 17 0 8 -8 3 -21 -13z"/>
<path d="M2146 5191 c-3 -5 2 -15 12 -22 15 -12 16 -12 5 2 -7 9 -10 19 -6 22
3 4 4 7 0 7 -3 0 -8 -4 -11 -9z"/>
<path d="M7763 5153 c4 -3 1 -13 -6 -22 -11 -14 -10 -14 5 -2 16 12 16 31 1
31 -4 0 -3 -3 0 -7z"/>
<path d="M7895 5139 c-4 -6 -5 -12 -2 -15 2 -3 7 2 10 11 7 17 1 20 -8 4z"/>
<path d="M7800 5131 c0 -7 -5 -9 -12 -5 -7 5 -8 3 -3 -5 5 -9 10 -10 18 -2 6
6 8 14 4 18 -4 3 -7 1 -7 -6z"/>
<path d="M7821 5134 c-1 -6 5 -16 12 -22 10 -8 13 -6 14 11 2 15 0 18 -6 8 -7
-11 -9 -11 -14 0 -3 8 -6 9 -6 3z"/>
<path d="M7864 5094 c1 -8 5 -16 8 -20 4 -3 4 -12 1 -20 -3 -8 0 -20 6 -28 6
-7 8 -16 5 -19 -4 -3 3 -5 14 -4 13 1 22 10 25 24 3 15 0 22 -7 20 -6 -3 -10
-10 -8 -17 3 -11 0 -11 -13 0 -9 7 -13 21 -10 31 4 11 1 19 -6 19 -8 0 -9 3 0
13 8 10 7 14 -3 14 -8 0 -13 -6 -12 -13z"/>
<path d="M7794 5086 c1 -8 7 -20 13 -27 6 -8 18 -34 27 -59 14 -39 16 -40 11
-11 -4 27 -2 31 8 22 17 -13 15 -44 -3 -68 -14 -17 -14 -17 7 0 13 11 19 25
16 35 -5 11 -3 13 8 7 11 -7 12 -6 2 7 -7 8 -11 17 -8 20 3 3 -1 11 -9 17 -8
7 -12 20 -9 29 4 14 3 15 -5 2 -6 -8 -9 -17 -6 -21 2 -4 0 -10 -6 -14 -5 -3
-10 0 -10 8 0 8 -7 20 -15 27 -8 7 -13 16 -10 20 3 5 1 11 -4 14 -5 4 -8 0 -7
-8z"/>
<path d="M7499 5043 c-13 -16 -12 -17 4 -4 16 13 21 21 13 21 -2 0 -10 -8 -17
-17z"/>
<path d="M7774 4988 l-19 -23 23 19 c12 11 22 21 22 23 0 8 -8 2 -26 -19z"/>
<path d="M7380 4985 c0 -2 6 -8 13 -14 10 -8 14 -7 14 2 0 8 -6 14 -14 14 -7
0 -13 -1 -13 -2z"/>
<path d="M4945 4964 c-111 -26 -128 -36 -140 -86 -6 -24 1 -36 51 -89 33 -34
94 -91 137 -127 97 -82 113 -108 93 -155 -19 -46 -86 -101 -149 -121 -168 -55
-361 -11 -457 104 -43 51 -68 61 -90 35 -41 -49 94 -183 228 -225 167 -52 329
-28 458 70 l50 38 35 -30 c167 -143 462 -136 626 15 50 46 86 108 77 131 -12
30 -47 16 -113 -46 -72 -68 -146 -101 -248 -112 -161 -16 -343 73 -343 167 0
28 17 49 141 169 137 133 140 137 137 175 -3 35 -7 40 -53 63 -47 23 -60 25
-235 27 -102 1 -194 0 -205 -3z"/>
<path d="M7674 4828 c-3 -4 -4 -8 -2 -9 25 -6 35 -5 35 5 0 14 -25 17 -33 4z"/>
</g>
</svg>
