<?xml version="1.0" standalone="no"?>
<!DOCTYPE svg PUBLIC "-//W3C//DTD SVG 20010904//EN"
 "http://www.w3.org/TR/2001/REC-SVG-20010904/DTD/svg10.dtd">
<svg version="1.0" xmlns="http://www.w3.org/2000/svg"
 width="1024.000000pt" height="1024.000000pt" viewBox="0 0 1024.000000 1024.000000"
 preserveAspectRatio="xMidYMid meet">

<g transform="translate(0.000000,1024.000000) scale(0.100000,-0.100000)"
fill="#000000" stroke="none">
<path d="M7165 9146 c-136 -32 -302 -110 -430 -202 -130 -92 -405 -345 -405
-371 0 -4 53 -35 117 -68 427 -220 743 -463 1007 -772 43 -51 82 -90 87 -88 9
6 183 252 267 377 141 210 277 458 306 557 25 87 21 187 -10 250 -27 53 -100
123 -188 179 -60 38 -203 98 -293 122 -102 28 -367 37 -458 16z"/>
<path d="M2607 9124 c-215 -39 -413 -165 -476 -305 -23 -50 -28 -150 -10 -214
27 -96 144 -308 290 -527 48 -72 288 -414 306 -438 2 -2 34 29 70 70 107 121
311 319 421 408 131 104 347 247 530 349 79 44 144 84 145 89 1 5 -65 66 -146
136 -296 255 -521 383 -759 432 -94 19 -264 19 -371 0z"/>
<path d="M6265 8290 c-3 -5 -4 -11 -1 -11 3 -1 11 -3 16 -4 6 -1 13 -3 18 -4
4 -1 1 -5 -6 -9 -9 -6 -6 -16 13 -38 14 -16 21 -30 16 -32 -6 -2 -7 -10 -4
-18 3 -9 -2 -14 -16 -14 -20 0 -21 -4 -21 -140 0 -77 -3 -140 -7 -140 -4 0
-23 17 -42 38 -52 53 -68 65 -68 48 0 -21 -56 -86 -75 -86 -33 0 -48 -13 -54
-46 -5 -29 -10 -34 -35 -34 -34 0 -44 -13 -24 -33 19 -20 19 -34 0 -53 -16
-16 -20 -32 -30 -106 -5 -37 -10 -48 -24 -48 -11 0 -24 -12 -31 -30 -7 -16
-19 -30 -26 -30 -9 0 -14 -11 -14 -30 0 -16 -4 -30 -10 -30 -5 0 -10 -9 -10
-20 0 -11 -6 -20 -13 -20 -14 0 -37 -40 -37 -65 0 -8 -9 -15 -19 -15 -15 0
-21 -10 -26 -40 -4 -22 -11 -40 -16 -40 -5 0 -9 -18 -9 -40 0 -29 -4 -40 -15
-40 -8 0 -15 -9 -15 -20 0 -16 -7 -20 -31 -20 -30 0 -31 -1 -24 -32 5 -18 8
-52 7 -75 -1 -25 2 -43 8 -43 6 0 8 -4 5 -10 -3 -5 -17 -10 -31 -10 -13 0 -24
5 -24 10 0 6 -4 10 -9 10 -5 0 -8 -8 -7 -17 2 -13 15 -19 51 -24 84 -9 107
-65 59 -146 -20 -34 -38 -49 -80 -68 -36 -16 -53 -29 -48 -36 4 -7 3 -9 -3 -6
-15 9 -45 -27 -37 -46 7 -19 -29 -41 -56 -32 -10 3 -21 1 -25 -5 -7 -11 -96
-14 -132 -4 -16 5 -24 16 -29 43 -8 43 -25 65 -66 82 -29 12 -33 11 -46 -9
-11 -16 -24 -22 -53 -22 -32 0 -39 -3 -39 -20 0 -11 -4 -20 -10 -20 -14 0 -12
-27 3 -33 6 -3 -5 -6 -25 -6 -21 -1 -38 -5 -38 -11 0 -5 -9 -10 -21 -10 -12 0
-17 -4 -14 -11 4 -6 13 -8 21 -5 8 3 14 -1 14 -9 0 -8 -9 -15 -20 -15 -11 0
-20 5 -20 10 0 19 -32 10 -37 -10 -3 -11 -14 -20 -24 -20 -11 0 -19 -7 -19
-15 0 -8 -9 -15 -20 -15 -11 0 -20 -4 -20 -10 0 -6 -27 -10 -60 -10 -47 0 -60
-3 -60 -15 0 -10 -10 -15 -28 -15 -16 0 -36 -6 -46 -13 -19 -14 -17 -23 27
-91 117 -185 136 -225 137 -283 l0 -43 300 0 c165 0 303 -1 308 -2 4 -1 10 19
14 45 3 25 10 52 14 59 4 7 150 227 324 488 573 859 640 970 586 970 -20 0
-28 14 -20 35 5 12 14 15 34 11 25 -5 29 -1 44 37 66 176 67 360 1 486 -9 18
-20 29 -27 25 -7 -4 -8 -3 -4 5 8 13 -12 44 -23 37 -9 -6 -22 3 -46 34 -16 21
-14 20 13 -4 17 -17 32 -26 32 -21 0 7 -79 85 -87 85 -1 0 -5 -4 -8 -10z
m-247 -903 c15 -17 -1 -40 -24 -35 -27 5 -32 48 -6 48 11 0 24 -6 30 -13z
m-381 -299 c-3 -8 -6 -5 -6 6 -1 11 2 17 5 13 3 -3 4 -12 1 -19z m260 11 c14
-14 6 -39 -12 -39 -12 0 -25 21 -25 41 0 13 24 11 37 -2z m-652 -419 c3 -6 -1
-7 -9 -4 -18 7 -21 14 -7 14 6 0 13 -4 16 -10z m-98 -26 c-3 -3 -12 -4 -19 -1
-8 3 -5 6 6 6 11 1 17 -2 13 -5z"/>
<path d="M3487 7419 c-92 -22 -188 -91 -322 -230 -242 -252 -464 -593 -531
-816 -24 -79 -27 -105 -28 -250 -1 -202 -13 -168 -26 77 -19 360 -35 530 -51
530 -5 0 -9 -7 -9 -15 0 -8 -6 -12 -14 -9 -7 3 -20 -1 -27 -8 -18 -16 -54 -23
-44 -9 3 6 -1 18 -9 27 -11 10 -16 12 -16 3 0 -7 -3 -9 -6 -6 -4 3 -16 1 -28
-5 -11 -7 -27 -13 -34 -14 -21 -4 -27 -14 -9 -14 21 0 23 -36 2 -44 -22 -8
-18 -36 5 -36 11 0 20 -3 21 -7 6 -41 5 -73 -2 -73 -5 0 -9 -9 -9 -20 0 -11
-4 -20 -10 -20 -5 0 -10 -9 -10 -20 0 -13 -7 -20 -19 -20 -13 0 -20 -10 -25
-32 -8 -42 -29 -88 -38 -88 -5 0 -8 -9 -8 -20 0 -11 -4 -20 -10 -20 -5 0 -10
-9 -10 -19 0 -11 -5 -23 -11 -26 -6 -4 -8 -13 -5 -21 3 -8 2 -13 -2 -13 -31 5
-43 -32 -45 -141 0 -65 -25 -95 -63 -78 -15 7 -28 7 -40 0 -16 -10 -15 -11 11
-9 23 2 32 -4 43 -26 10 -21 11 -31 2 -42 -8 -10 -8 -14 3 -17 22 -5 2 -62
-28 -78 -14 -8 -35 -29 -47 -48 -22 -36 -33 -102 -17 -102 5 0 9 -34 9 -75 0
-86 14 -111 65 -117 24 -2 30 -8 29 -25 0 -13 5 -23 11 -23 14 0 31 -88 26
-139 -3 -39 16 -81 36 -81 8 0 13 -12 13 -32 0 -26 -3 -30 -11 -18 -8 11 -9 7
-5 -18 l6 -34 -33 20 c-57 35 -138 82 -141 82 -2 0 -36 22 -77 49 -41 26 -108
67 -149 90 -41 23 -88 51 -105 61 -57 36 -157 91 -160 88 -13 -17 -94 -335
-133 -528 -62 -302 -67 -346 -67 -630 0 -290 8 -352 65 -492 63 -155 203 -332
333 -420 147 -100 277 -140 457 -142 83 -1 133 -6 150 -15 90 -49 1109 -628
1386 -789 692 -400 955 -587 1311 -935 l91 -90 127 122 c70 66 175 160 233
207 313 250 1201 790 2217 1347 61 33 149 82 196 108 86 49 87 49 190 52 81 3
122 10 187 32 281 95 524 358 604 655 21 78 23 105 23 325 -1 180 -5 270 -19
360 -18 118 -77 413 -115 570 -11 44 -27 115 -38 158 -16 71 -20 77 -39 73
-19 -5 -24 2 -45 67 -24 78 -104 299 -118 332 -5 11 -17 43 -27 70 -24 70 -33
77 -69 53 -21 -14 -24 -18 -9 -14 18 6 21 3 16 -19 -2 -14 -10 -25 -16 -25 -6
0 -18 -9 -26 -20 -8 -11 -20 -20 -27 -20 -8 0 -13 -14 -13 -40 0 -22 -3 -39
-7 -39 -33 5 -53 -3 -53 -21 0 -11 5 -20 10 -20 6 0 10 -9 10 -20 0 -13 -7
-20 -20 -20 -13 0 -20 -7 -20 -20 0 -13 -7 -20 -20 -20 -11 0 -20 -4 -20 -10
0 -5 -7 -7 -15 -4 -11 5 -15 -2 -16 -27 -2 -53 -3 -59 -15 -67 -11 -7 -23 -45
-29 -97 -2 -16 -8 -31 -14 -33 -6 -2 -11 -12 -11 -23 0 -10 -4 -19 -10 -19 -5
0 -10 -18 -10 -40 0 -33 -3 -40 -20 -40 -13 0 -20 -7 -20 -20 0 -13 -7 -20
-20 -20 -13 0 -20 7 -20 20 0 23 -10 26 -28 8 -9 -9 -12 -4 -13 23 0 61 -10
123 -22 147 -14 28 -76 62 -113 62 -67 0 -150 -40 -139 -67 2 -8 1 -12 -4 -9
-4 3 -14 -7 -20 -22 -7 -15 -19 -40 -27 -55 -8 -16 -14 -47 -14 -69 0 -32 8
-49 42 -90 51 -60 83 -78 138 -78 29 0 40 -4 40 -15 0 -10 10 -15 34 -15 32 0
35 -2 41 -40 4 -22 11 -40 16 -40 5 0 9 -11 9 -25 0 -19 -5 -25 -22 -25 -22
-1 -23 -1 -4 -15 19 -14 19 -15 -5 -15 -14 0 -31 6 -37 12 -10 10 -15 10 -22
-2 -5 -8 -10 -23 -10 -32 0 -10 -6 -18 -12 -18 -9 0 -8 -4 2 -11 11 -7 5 -8
-22 -3 -30 5 -38 3 -38 -9 0 -8 6 -18 13 -21 6 -3 2 -3 -9 -1 -23 6 -58 -20
-49 -35 3 -4 -2 -11 -11 -14 -22 -9 -26 -8 -18 6 4 7 3 8 -4 4 -7 -4 -12 -14
-12 -22 0 -9 -11 -14 -30 -14 -20 0 -30 5 -30 15 0 9 -10 15 -26 15 -16 0 -23
4 -18 11 4 7 -8 3 -27 -7 -19 -10 -35 -22 -37 -26 -5 -12 -32 -10 -32 2 0 6
-9 10 -20 10 -19 0 -20 7 -20 90 0 53 -4 90 -10 90 -5 0 -10 9 -10 20 0 14 7
20 21 20 19 0 21 5 18 58 -5 108 0 162 15 162 16 0 21 13 31 78 4 23 12 42 19
42 7 0 13 6 13 13 0 6 4 28 8 48 6 32 4 37 -15 42 -17 4 -21 10 -15 24 4 10 8
27 9 38 2 11 11 36 21 55 24 47 37 94 40 155 2 28 10 79 19 115 23 89 31 250
17 336 -22 145 -91 307 -204 484 -207 321 -474 622 -617 694 -60 30 -83 36
-134 36 -121 0 -205 -66 -345 -268 -153 -222 -717 -1067 -743 -1115 -40 -72
-38 -139 8 -276 19 -58 55 -147 78 -197 102 -214 413 -704 579 -911 88 -110
188 -163 307 -164 77 -1 144 20 220 69 59 37 271 248 323 319 38 54 47 44 47
-53 0 -131 -55 -262 -145 -342 -67 -59 -242 -152 -408 -216 -631 -244 -1037
-326 -1555 -313 -532 13 -932 124 -1542 427 -69 34 -159 78 -200 97 -111 51
-169 91 -189 132 -29 57 -34 121 -16 184 26 90 34 90 110 -8 114 -146 262
-259 374 -285 127 -30 218 5 347 134 94 95 143 159 252 336 352 568 450 769
460 946 5 94 -7 126 -103 259 -32 44 -174 253 -315 465 -307 458 -400 588
-481 670 -89 91 -192 131 -282 109z m198 -453 c81 -34 155 -118 307 -351 46
-71 132 -202 190 -290 196 -299 218 -344 218 -460 0 -122 -36 -203 -228 -510
-186 -298 -237 -370 -287 -409 -57 -43 -127 -60 -191 -46 -102 23 -173 103
-305 342 -77 139 -88 163 -85 183 3 19 -24 55 -36 48 -5 -2 -8 0 -8 6 0 6 -28
57 -61 113 -203 339 -239 426 -246 603 -6 134 7 196 72 328 59 119 123 204
230 306 83 78 186 141 255 154 40 8 137 -1 175 -17z m3102 -8 c183 -68 422
-375 490 -628 22 -83 24 -283 4 -355 -32 -111 -151 -336 -221 -415 -17 -19
-54 -80 -82 -135 -61 -120 -169 -313 -211 -375 -75 -112 -138 -154 -232 -153
-114 1 -186 55 -295 225 -41 62 -112 172 -159 243 -97 148 -172 285 -202 371
-29 82 -30 203 -2 264 41 92 510 802 582 882 92 103 194 127 328 76z m1683
-978 c0 -5 -5 -10 -11 -10 -5 0 -7 5 -4 10 3 6 8 10 11 10 2 0 4 -4 4 -10z
m-5990 -95 c15 -18 6 -61 -15 -69 -40 -15 -69 32 -39 65 21 23 37 24 54 4z
m-198 -105 c20 -6 50 -26 67 -46 25 -28 31 -43 31 -83 0 -40 -6 -54 -33 -86
-28 -32 -40 -38 -83 -42 -62 -6 -103 13 -133 60 -25 41 -26 73 -5 126 14 37
35 53 94 74 22 8 22 8 62 -3z m5335 -62 c-3 -7 -5 -2 -5 12 0 14 2 19 5 13 2
-7 2 -19 0 -25z m701 -141 c3 -14 -1 -18 -19 -15 -12 2 -23 11 -25 21 -3 25
40 19 44 -6z m-390 -85 c11 -11 22 -38 26 -61 4 -28 11 -41 19 -38 8 3 13 -10
15 -39 2 -38 0 -44 -20 -49 -13 -3 -32 -22 -43 -43 -24 -44 -67 -60 -123 -46
-29 7 -38 15 -42 36 -3 14 -17 36 -32 48 -21 16 -28 30 -27 53 1 41 49 129 80
144 38 20 126 16 147 -5z m77 -242 c-3 -5 -12 -10 -18 -10 -7 0 -6 4 3 10 19
12 23 12 15 0z m-5740 -188 c-3 -3 -11 0 -18 7 -9 10 -8 11 6 5 10 -3 15 -9
12 -12z m5855 8 c0 -5 -2 -10 -4 -10 -3 0 -8 5 -11 10 -3 6 -1 10 4 10 6 0 11
-4 11 -10z m-65 -40 c3 -5 1 -10 -4 -10 -6 0 -11 5 -11 10 0 6 2 10 4 10 3 0
8 -4 11 -10z m-5800 -263 c258 -263 628 -662 640 -691 13 -30 43 -276 61 -486
8 -99 25 -103 -135 35 -297 256 -360 311 -518 458 -213 196 -291 279 -298 321
-4 17 -5 115 -3 218 3 182 4 187 27 212 27 29 75 47 106 39 11 -2 65 -50 120
-106z m6000 83 c2 0 13 -15 24 -34 19 -31 21 -48 21 -225 0 -146 -3 -199 -14
-219 -16 -31 -238 -250 -397 -393 -195 -175 -563 -468 -574 -457 -4 4 0 73 25
376 7 81 16 134 28 156 18 35 718 764 761 794 42 28 54 30 90 16 18 -8 35 -14
36 -14z m-4945 -760 c0 -5 -2 -10 -4 -10 -3 0 -8 5 -11 10 -3 6 -1 10 4 10 6
0 11 -4 11 -10z m740 -215 c0 -6 -16 -26 -35 -45 l-35 -34 -26 25 c-48 45 -49
56 -8 95 l38 34 33 -32 c18 -18 33 -37 33 -43z m3110 -241 c0 -9 -5 -14 -12
-12 -18 6 -21 28 -4 28 9 0 16 -7 16 -16z m-506 -43 c30 -32 28 -48 -13 -85
-21 -19 -22 -19 -51 9 -17 16 -30 33 -30 39 0 11 50 66 60 66 3 0 19 -13 34
-29z m236 -181 l20 -20 -20 -22 c-19 -21 -20 -21 -40 -3 -25 22 -25 34 -2 51
22 17 19 17 42 -6z m-1958 -171 c3 -30 6 -112 7 -182 1 -83 5 -126 11 -122 6
3 10 15 10 26 0 17 7 19 79 19 54 0 81 -4 85 -12 5 -10 7 -10 12 0 4 8 29 12
74 12 45 0 70 -4 73 -12 3 -7 6 2 6 21 1 51 11 32 20 -40 8 -59 9 -54 10 58 1
155 11 168 102 143 42 -12 49 -27 49 -110 0 -30 4 -59 8 -65 12 -17 49 -17 80
-1 16 8 32 12 36 9 3 -4 6 2 6 13 0 17 2 16 19 -5 46 -60 56 -208 20 -313 -39
-117 -143 -239 -247 -292 -122 -62 -319 -73 -447 -26 -207 78 -335 261 -335
481 0 86 18 119 64 119 14 0 26 6 26 13 0 8 3 9 8 1 4 -6 17 -13 30 -16 16 -5
22 -2 24 10 1 10 4 -8 8 -38 4 -37 7 2 8 116 2 149 4 173 20 187 26 24 106 67
117 64 6 -2 13 -28 17 -58z"/>
<path d="M4952 2900 c0 -14 2 -19 5 -12 2 6 2 18 0 25 -3 6 -5 1 -5 -13z"/>
<path d="M5358 7103 c12 -2 30 -2 40 0 9 3 -1 5 -23 4 -22 0 -30 -2 -17 -4z"/>
<path d="M5510 7047 c0 -2 6 -10 14 -16 11 -9 16 -9 22 1 4 7 4 10 -1 6 -4 -4
-14 -3 -22 3 -7 6 -13 9 -13 6z"/>
<path d="M5087 6803 c-4 -3 -7 -23 -7 -43 l0 -36 43 5 c34 5 43 10 45 28 3 17
-5 26 -34 38 -42 17 -39 17 -47 8z"/>
<path d="M4585 6481 c-3 -5 -2 -12 3 -15 5 -3 9 1 9 9 0 17 -3 19 -12 6z"/>
<path d="M7890 5056 c0 -8 -7 -16 -15 -20 -28 -10 -17 -36 15 -36 28 0 30 3
30 35 0 24 -5 35 -15 35 -8 0 -15 -6 -15 -14z"/>
<path d="M4945 4964 c-108 -25 -145 -50 -145 -96 0 -24 87 -117 193 -206 92
-78 112 -108 96 -149 -39 -103 -215 -172 -373 -145 -97 16 -167 52 -228 116
-53 57 -76 67 -97 42 -18 -22 -3 -62 44 -114 89 -98 267 -156 415 -134 88 12
166 44 231 94 l45 35 35 -30 c131 -113 361 -135 528 -51 102 51 192 153 175
198 -12 31 -49 17 -103 -38 -92 -93 -234 -137 -371 -115 -126 20 -230 93 -230
162 0 28 17 49 141 168 137 134 140 138 137 175 -3 36 -7 41 -53 64 -47 23
-60 25 -235 27 -102 1 -194 0 -205 -3z"/>
<path d="M7555 4870 c-3 -5 -1 -10 4 -10 6 0 11 5 11 10 0 6 -2 10 -4 10 -3 0
-8 -4 -11 -10z"/>
</g>
</svg>
